%TF.GenerationSoftware,KiCad,Pcbnew,9.0.6*%
%TF.CreationDate,2026-01-26T19:54:01-03:00*%
%TF.ProjectId,osciloscopio,6f736369-6c6f-4736-936f-70696f2e6b69,rev?*%
%TF.SameCoordinates,Original*%
%TF.FileFunction,Soldermask,Bot*%
%TF.FilePolarity,Negative*%
%FSLAX46Y46*%
G04 Gerber Fmt 4.6, Leading zero omitted, Abs format (unit mm)*
G04 Created by KiCad (PCBNEW 9.0.6) date 2026-01-26 19:54:01*
%MOMM*%
%LPD*%
G01*
G04 APERTURE LIST*
G04 Aperture macros list*
%AMRoundRect*
0 Rectangle with rounded corners*
0 $1 Rounding radius*
0 $2 $3 $4 $5 $6 $7 $8 $9 X,Y pos of 4 corners*
0 Add a 4 corners polygon primitive as box body*
4,1,4,$2,$3,$4,$5,$6,$7,$8,$9,$2,$3,0*
0 Add four circle primitives for the rounded corners*
1,1,$1+$1,$2,$3*
1,1,$1+$1,$4,$5*
1,1,$1+$1,$6,$7*
1,1,$1+$1,$8,$9*
0 Add four rect primitives between the rounded corners*
20,1,$1+$1,$2,$3,$4,$5,0*
20,1,$1+$1,$4,$5,$6,$7,0*
20,1,$1+$1,$6,$7,$8,$9,0*
20,1,$1+$1,$8,$9,$2,$3,0*%
G04 Aperture macros list end*
%ADD10C,2.000000*%
%ADD11R,3.200000X2.000000*%
%ADD12R,2.000000X2.000000*%
%ADD13C,4.000000*%
%ADD14R,1.500000X1.500000*%
%ADD15C,1.500000*%
%ADD16C,1.524000*%
%ADD17C,1.700000*%
%ADD18C,2.200000*%
%ADD19RoundRect,0.250000X0.550000X-0.550000X0.550000X0.550000X-0.550000X0.550000X-0.550000X-0.550000X0*%
%ADD20C,1.600000*%
G04 APERTURE END LIST*
D10*
%TO.C,SW3*%
X224770000Y-59172500D03*
X224770000Y-64172500D03*
D11*
X217770000Y-67272500D03*
X217770000Y-56072500D03*
D10*
X210270000Y-61672500D03*
X210270000Y-64172500D03*
D12*
X210270000Y-59172500D03*
%TD*%
D13*
%TO.C,U3*%
X123625000Y-59910000D03*
X123625000Y-94010000D03*
X184825000Y-59910000D03*
X184825000Y-94010000D03*
D14*
X122125000Y-66800000D03*
D15*
X122125000Y-69340000D03*
X122125000Y-71880000D03*
X122125000Y-74420000D03*
X122125000Y-76960000D03*
X122125000Y-79500000D03*
X122125000Y-82040000D03*
X122125000Y-84580000D03*
X122125000Y-87120000D03*
X185645000Y-71880000D03*
X185645000Y-74420000D03*
X185645000Y-76960000D03*
X185645000Y-79500000D03*
X185645000Y-82040000D03*
%TD*%
D16*
%TO.C,U1*%
X231810000Y-76170000D03*
X231810000Y-78710000D03*
X231810000Y-81250000D03*
X231810000Y-83790000D03*
X231810000Y-86330000D03*
X231810000Y-88870000D03*
X231810000Y-91410000D03*
X247050000Y-91410000D03*
X247050000Y-88870000D03*
X247050000Y-86330000D03*
X247050000Y-83790000D03*
X247050000Y-81250000D03*
X247050000Y-78710000D03*
X247050000Y-76170000D03*
%TD*%
D12*
%TO.C,SW7*%
X191238750Y-76081250D03*
D10*
X191238750Y-81081250D03*
X191238750Y-78581250D03*
D11*
X198738750Y-72981250D03*
X198738750Y-84181250D03*
D10*
X205738750Y-81081250D03*
X205738750Y-76081250D03*
%TD*%
D12*
%TO.C,SW6*%
X191238750Y-59412500D03*
D10*
X191238750Y-64412500D03*
X191238750Y-61912500D03*
D11*
X198738750Y-56312500D03*
X198738750Y-67512500D03*
D10*
X205738750Y-64412500D03*
X205738750Y-59412500D03*
%TD*%
D12*
%TO.C,SW5*%
X229360000Y-59110000D03*
D10*
X229360000Y-64110000D03*
X229360000Y-61610000D03*
D11*
X236860000Y-56010000D03*
X236860000Y-67210000D03*
D10*
X243860000Y-64110000D03*
X243860000Y-59110000D03*
%TD*%
D12*
%TO.C,SW4*%
X210270000Y-76270000D03*
D10*
X210270000Y-81270000D03*
X210270000Y-78770000D03*
D11*
X217770000Y-73170000D03*
X217770000Y-84370000D03*
D10*
X224770000Y-81270000D03*
X224770000Y-76270000D03*
%TD*%
D17*
%TO.C,SW2*%
X193620000Y-97750000D03*
D13*
X198700000Y-97750000D03*
D17*
X203780000Y-97750000D03*
D18*
X201240000Y-92670000D03*
X194890000Y-95210000D03*
%TD*%
D17*
%TO.C,SW1*%
X213880000Y-97910000D03*
D13*
X218960000Y-97910000D03*
D17*
X224040000Y-97910000D03*
D18*
X221500000Y-92830000D03*
X215150000Y-95370000D03*
%TD*%
D15*
%TO.C,J1*%
X239300000Y-105310000D03*
X239300000Y-98310000D03*
%TD*%
D19*
%TO.C,D1*%
X247090000Y-105760000D03*
D20*
X247090000Y-98140000D03*
%TD*%
M02*
