M48
; DRILL file {KiCad 9.0.6} date 2026-01-26T19:54:05-0300
; FORMAT={-:-/ absolute / metric / decimal}
; #@! TF.CreationDate,2026-01-26T19:54:05-03:00
; #@! TF.GenerationSoftware,Kicad,Pcbnew,9.0.6
; #@! TF.FileFunction,Plated,1,2,PTH
FMAT,2
METRIC
; #@! TA.AperFunction,Plated,PTH,ViaDrill
T1C0.300
; #@! TA.AperFunction,Plated,PTH,ComponentDrill
T2C0.800
; #@! TA.AperFunction,Plated,PTH,ComponentDrill
T3C0.889
; #@! TA.AperFunction,Plated,PTH,ComponentDrill
T4C1.000
; #@! TA.AperFunction,Plated,PTH,ComponentDrill
T5C1.500
; #@! TA.AperFunction,Plated,PTH,ComponentDrill
T6C2.700
%
G90
G05
T1
X147.637Y-102.394
X150.019Y-111.518
X164.306Y-107.156
X169.069Y-107.156
X183.356Y-54.769
X183.356Y-88.106
X202.406Y-80.962
X209.55Y-83.344
X211.931Y-69.056
X211.931Y-109.537
X228.6Y-85.725
X228.6Y-97.631
X228.6Y-102.394
X233.362Y-95.25
X233.362Y-102.394
X238.125Y-78.581
X238.125Y-90.487
X240.506Y-92.869
X240.506Y-97.631
X242.887Y-90.487
T2
X247.09Y-98.14
X247.09Y-105.76
T3
X231.81Y-76.17
X231.81Y-78.71
X231.81Y-81.25
X231.81Y-83.79
X231.81Y-86.33
X231.81Y-88.87
X231.81Y-91.41
X247.05Y-76.17
X247.05Y-78.71
X247.05Y-81.25
X247.05Y-83.79
X247.05Y-86.33
X247.05Y-88.87
X247.05Y-91.41
T4
X122.125Y-66.8
X122.125Y-69.34
X122.125Y-71.88
X122.125Y-74.42
X122.125Y-76.96
X122.125Y-79.5
X122.125Y-82.04
X122.125Y-84.58
X122.125Y-87.12
X185.645Y-71.88
X185.645Y-74.42
X185.645Y-76.96
X185.645Y-79.5
X185.645Y-82.04
X191.239Y-59.412
X191.239Y-61.912
X191.239Y-64.412
X191.239Y-76.081
X191.239Y-78.581
X191.239Y-81.081
X205.739Y-59.412
X205.739Y-64.412
X205.739Y-76.081
X205.739Y-81.081
X210.27Y-59.172
X210.27Y-61.672
X210.27Y-64.172
X210.27Y-76.27
X210.27Y-78.77
X210.27Y-81.27
X224.77Y-59.172
X224.77Y-64.172
X224.77Y-76.27
X224.77Y-81.27
X229.36Y-59.11
X229.36Y-61.61
X229.36Y-64.11
X243.86Y-59.11
X243.86Y-64.11
T5
X194.89Y-95.21
X201.24Y-92.67
X215.15Y-95.37
X221.5Y-92.83
T6
X123.625Y-59.91
X123.625Y-94.01
X184.825Y-59.91
X184.825Y-94.01
T5
G00X198.089Y-56.312
M15
G01X199.389Y-56.312
M16
G05
G00X198.089Y-67.513
M15
G01X199.389Y-67.513
M16
G05
G00X198.089Y-72.981
M15
G01X199.389Y-72.981
M16
G05
G00X198.089Y-84.181
M15
G01X199.389Y-84.181
M16
G05
G00X217.12Y-56.072
M15
G01X218.42Y-56.072
M16
G05
G00X217.12Y-67.272
M15
G01X218.42Y-67.272
M16
G05
G00X217.12Y-73.17
M15
G01X218.42Y-73.17
M16
G05
G00X217.12Y-84.37
M15
G01X218.42Y-84.37
M16
G05
G00X236.21Y-56.01
M15
G01X237.51Y-56.01
M16
G05
G00X236.21Y-67.21
M15
G01X237.51Y-67.21
M16
G05
M30
